Coordinates
version=1
nRows=7
nColumns=40
inDegrees=yes

Units are S.I. units (second, meters, Newtons, ...)
Angles are in degrees.

endheader
time	pelvis_tilt	pelvis_list	pelvis_rotation	pelvis_tx	pelvis_ty	pelvis_tz	hip_flexion_r	hip_adduction_r	hip_rotation_r	knee_angle_r	knee_angle_r_beta	ankle_angle_r	subtalar_angle_r	mtp_angle_r	hip_flexion_l	hip_adduction_l	hip_rotation_l	knee_angle_l	knee_angle_l_beta	ankle_angle_l	subtalar_angle_l	mtp_angle_l	lumbar_extension	lumbar_bending	lumbar_rotation	arm_flex_r	arm_add_r	arm_rot_r	elbow_flex_r	pro_sup_r	wrist_flex_r	wrist_dev_r	arm_flex_l	arm_add_l	arm_rot_l	elbow_flex_l	pro_sup_l	wrist_flex_l	wrist_dev_l
      1.06000000	     -0.14488136	      1.48266688	      7.75923094	      0.63632671	      0.89190831	     -1.03253164	     29.88699893	     -6.60434131	    -17.72352674	    -25.38449218	     -0.44304297	      5.97433898	     -6.42998940	     16.89121644	     -3.05377739	      0.44598901	      6.66567209	    -27.01831308	     -0.47155852	     10.78223418	      1.52459637	     -4.98634459	     -6.36571257	     -3.35357781	    -13.16578843	     -8.85933001	     -6.98605781	    -12.91256008	     23.66983828	     89.95437384	      0.00000000	      0.00000000	      8.46740349	     16.21400781	     12.84610235	     64.57024065	     89.95437384	      0.00000000	      0.00000000
      1.07000000	     -0.25221530	      1.55493156	      8.19028363	      0.64901391	      0.89073439	     -1.03182155	     30.07425367	     -6.86141462	    -19.00835427	    -23.63797244	     -0.41256045	      6.43465462	     -5.24616201	     16.04350700	     -3.71039410	      0.85448285	      6.87665993	    -27.11397081	     -0.47322806	     10.12238991	      0.44888954	     -5.90611826	     -6.23017858	     -3.37749250	    -13.67948995	     -9.14734112	     -6.97137211	    -13.27876269	     22.88780717	     89.95437384	      0.00000000	      0.00000000	      8.80885472	     16.46757875	     12.90596054	     65.90929339	     89.95437384	      0.00000000	      0.00000000
      1.08000000	     -0.59187825	      1.80037408	      8.46712626	      0.66174886	      0.88923095	     -1.03098378	     30.57712019	     -7.12910099	    -19.53264210	    -22.30955020	     -0.38937511	      6.79363535	     -4.95171811	     15.81877551	     -4.16025611	      0.90333878	      6.78181155	    -27.20394205	     -0.47479836	      9.65149191	      0.18695549	     -6.00092485	     -5.85218972	     -3.62018331	    -13.99378795	     -9.56071686	     -6.99484309	    -13.40536183	     22.34529870	     89.95437384	      0.00000000	      0.00000000	      9.13113320	     16.78514460	     12.79313376	     67.09577597	     89.95437384	      0.00000000	      0.00000000
      1.09000000	     -0.53197182	      1.65765465	      8.96276761	      0.67503689	      0.88819935	     -1.03025426	     30.50206588	     -7.18983069	    -21.16826415	    -21.31852360	     -0.37207843	      7.18185531	     -3.54230816	     14.63838282	     -4.84559425	      1.63954192	      6.88269792	    -27.54834707	     -0.48080936	      8.68542412	     -1.31324848	     -7.07158277	     -5.82500018	     -3.35307422	    -14.52641218	     -9.87425638	     -7.03235773	    -13.72854388	     21.75432746	     89.95437384	      0.00000000	      0.00000000	      9.37757766	     16.93934696	     12.90529213	     68.25720987	     89.95437384	      0.00000000	      0.00000000
      1.10000000	     -0.66860352	      1.71483690	      9.39670251	      0.68819316	      0.88693411	     -1.02959210	     30.66732188	     -7.32362118	    -21.94500022	    -20.69540159	     -0.36120290	      7.18901812	     -3.35238059	     13.99368902	     -5.30738058	      1.90946464	      6.31758915	    -27.92391907	     -0.48736433	      8.07013810	     -1.44713873	     -7.54938428	     -5.61982724	     -3.32123135	    -15.00241467	    -10.23677473	     -7.07811242	    -13.92252222	     21.33033162	     89.95437384	      0.00000000	      0.00000000	      9.53354777	     17.14359655	     12.89959681	     69.38044923	     89.95437384	      0.00000000	      0.00000000
      1.11000000	     -0.88354392	      1.89227260	      9.46938039	      0.70176648	      0.88545723	     -1.02872564	     31.00245580	     -7.38496890	    -21.95044974	    -20.61314550	     -0.35976726	      7.15973343	     -3.32232649	     13.73996514	     -5.74568045	      1.96917061	      6.04167155	    -28.34574200	     -0.49472653	      7.68180030	     -1.39833049	     -7.44740598	     -5.26191418	     -3.40717248	    -14.95965138	    -10.85515399	     -7.19798857	    -13.94284808	     21.21940295	     89.95437384	      0.00000000	      0.00000000	      9.81303139	     17.14885984	     12.80630707	     70.14950310	     89.95437384	      0.00000000	      0.00000000
      1.12000000	     -0.85850903	      1.79837080	     10.00875250	      0.71551311	      0.88439418	     -1.02800679	     30.74441651	     -7.27337345	    -22.48508425	    -20.40390931	     -0.35611540	      7.31002298	     -3.43959666	     13.44675507	     -6.20585396	      2.40738069	      5.04079103	    -28.95747791	     -0.50540333	      6.57026503	     -1.24131483	     -7.40824987	     -5.17710104	     -3.16340596	    -15.62344342	    -11.18641605	     -7.23456333	    -14.24686772	     20.98907799	     89.95437384	      0.00000000	      0.00000000	      9.63784213	     17.57814565	     12.56587357	     71.31341703	     89.95437384	      0.00000000	      0.00000000
